<?xml version="1.0" standalone="no"?>
<!DOCTYPE svg PUBLIC "-//W3C//DTD SVG 20010904//EN"
"http://www.w3.org/TR/2001/REC-SVG-20010904/DTD/svg10.dtd">
<svg version="1.0" xmlns="http://www.w3.org/2000/svg"
width="589.000000pt" height="589.000000pt" viewBox="0 0 589.000000 589.000000"
preserveAspectRatio="xMidYMid meet">
<metadata>
Created by potrace 1.14, written by Peter Selinger 2001-2017
</metadata>
<g transform="translate(0.000000,589.000000) scale(0.100000,-0.100000)"
fill="#000000" stroke="none">
<path d="M2890 5880 c0 -3 -17 -5 -37 -5 -21 1 -46 -2 -55 -7 -10 -5 -19 -4
-23 3 -4 6 -14 7 -24 4 -9 -4 -44 -8 -78 -11 -35 -2 -75 -6 -90 -9 -50 -11
-106 -21 -130 -24 -7 0 -13 -6 -13 -12 0 -5 5 -7 10 -4 16 10 12 -1 -6 -15 -8
-8 -14 -9 -13 -4 4 22 -2 32 -18 29 -10 -2 -22 -4 -26 -4 -5 -1 -5 -7 -1 -13
6 -10 5 -10 -7 -1 -12 10 -18 10 -29 0 -10 -10 -11 -9 -5 2 6 10 4 12 -6 5 -8
-4 -23 -9 -34 -10 -11 -1 -40 -7 -65 -14 -25 -8 -47 -14 -50 -14 -3 -1 -11 -5
-17 -9 -7 -5 -18 -5 -25 -1 -8 5 -9 2 -4 -11 5 -14 4 -16 -7 -7 -10 9 -22 8
-48 -1 -19 -6 -36 -14 -39 -17 -6 -6 -24 -10 -64 -15 -16 -2 -32 -9 -36 -15
-4 -6 -17 -12 -28 -13 -12 -1 -22 -5 -22 -9 0 -4 -4 -8 -9 -8 -18 0 -201 -92
-201 -101 0 -5 -8 -9 -17 -9 -19 0 -154 -84 -212 -131 -19 -15 -39 -25 -44
-22 -6 3 -7 1 -3 -5 4 -7 -6 -17 -26 -26 -80 -34 -331 -259 -502 -450 -92
-103 -107 -122 -98 -130 3 -4 0 -5 -8 -2 -9 3 -27 -11 -47 -37 -39 -51 -155
-200 -188 -242 -15 -19 -20 -32 -13 -36 6 -4 2 -10 -10 -14 -40 -12 -193 -277
-315 -545 -75 -166 -155 -448 -185 -654 -14 -103 -6 -648 12 -731 2 -11 7 -42
10 -69 21 -153 157 -603 179 -589 6 4 8 0 4 -10 -7 -20 109 -282 140 -315 6
-6 15 -21 18 -32 3 -11 11 -20 16 -20 5 0 9 -4 9 -9 0 -5 8 -26 17 -47 9 -22
16 -43 15 -47 -2 -5 2 -6 7 -2 6 3 13 -5 17 -19 3 -14 13 -31 22 -38 13 -11
14 -11 7 1 -5 10 -4 12 4 7 6 -4 9 -11 6 -16 -3 -5 2 -16 11 -24 8 -9 14 -16
11 -16 -2 0 16 -21 41 -47 25 -27 49 -47 54 -45 5 1 7 -2 3 -8 -6 -10 4 -23
63 -85 12 -13 22 -27 22 -31 0 -4 9 -15 21 -25 11 -10 18 -23 14 -28 -3 -7 0
-8 9 -5 9 3 16 1 16 -5 0 -15 114 -131 129 -131 6 0 11 -7 11 -16 0 -8 5 -12
10 -9 6 3 10 -1 10 -10 0 -8 8 -19 18 -22 9 -4 23 -15 30 -25 7 -10 17 -18 22
-18 4 0 29 -20 56 -45 26 -25 49 -43 51 -41 3 2 13 -4 24 -15 11 -11 25 -17
31 -13 7 4 8 3 4 -4 -4 -7 -1 -12 8 -12 9 0 15 -6 13 -12 -1 -7 4 -12 11 -10
7 1 15 -5 18 -13 4 -8 10 -15 16 -15 5 0 16 -7 25 -15 8 -8 19 -13 24 -9 5 3
8 0 7 -8 -2 -7 3 -12 11 -10 8 2 11 -3 8 -12 -4 -10 -1 -13 7 -10 7 3 16 -2
20 -11 3 -9 10 -13 16 -10 5 3 10 1 10 -4 0 -6 5 -11 11 -11 6 0 17 -7 26 -15
8 -8 19 -13 24 -9 5 3 8 0 7 -8 -2 -7 3 -12 10 -11 6 2 12 0 12 -5 0 -4 14
-13 30 -20 18 -9 27 -18 23 -25 -4 -7 2 -5 12 3 17 14 18 13 12 -2 -4 -13 -2
-15 10 -11 12 5 14 3 8 -7 -6 -10 -4 -12 8 -7 12 4 17 1 18 -11 0 -13 2 -13 6
-3 4 10 10 5 19 -15 12 -26 13 -26 8 -4 -4 22 -3 23 6 7 8 -13 15 -15 24 -8 9
8 13 7 13 -4 0 -8 -4 -12 -9 -9 -4 3 -8 0 -8 -5 0 -6 9 -11 20 -11 11 0 20 -5
20 -11 0 -8 5 -7 16 1 12 11 15 11 12 -1 -2 -8 3 -13 10 -12 6 2 12 -2 12 -8
0 -5 4 -7 10 -4 5 3 10 -2 10 -12 0 -15 2 -16 11 -3 8 11 12 12 16 3 2 -7 16
-13 29 -13 14 0 23 -4 20 -8 -2 -4 13 -8 34 -7 21 1 37 -2 34 -6 -2 -4 9 -9
24 -11 44 -8 56 -12 71 -26 7 -7 20 -11 28 -8 8 3 12 2 9 -3 -3 -5 7 -11 22
-14 97 -18 115 -24 108 -35 -2 -4 3 -8 12 -9 58 -5 228 -34 267 -45 22 -6 49
-13 60 -15 11 -2 27 -6 35 -10 8 -3 23 -5 33 -4 9 1 17 -2 17 -8 0 -5 21 -13
48 -16 26 -3 75 -12 108 -19 34 -8 68 -10 75 -5 7 4 19 4 27 0 8 -4 32 -5 53
-1 21 4 39 4 39 0 0 -4 16 -4 35 0 22 5 35 4 35 -2 0 -6 5 -7 13 -2 11 8 32
10 47 4 16 -6 48 -5 44 1 -2 4 0 10 6 14 5 3 10 0 10 -7 0 -11 2 -11 9 0 5 9
31 13 77 13 99 -1 105 -1 100 7 -4 7 14 9 87 12 20 1 35 5 32 11 -4 5 -2 9 4
9 5 0 12 -8 14 -17 4 -17 5 -17 6 0 0 10 6 15 11 12 6 -3 10 -2 10 3 0 6 10 8
22 4 13 -3 19 -1 15 5 -4 6 6 9 24 8 16 -1 32 2 35 7 3 5 11 4 19 -2 9 -7 16
-6 25 5 7 8 18 15 24 15 6 0 4 -5 -4 -10 -12 -7 -10 -9 7 -7 12 0 19 5 17 9
-3 4 0 8 6 8 6 0 9 4 6 8 -3 5 5 8 17 7 12 -1 28 2 35 8 8 6 12 6 12 -3 0 -9
3 -10 13 -1 8 6 17 8 20 4 4 -3 13 0 22 7 12 10 15 10 15 -1 1 -11 3 -10 13 2
7 9 18 14 26 11 8 -3 11 0 7 7 -4 6 -1 11 8 11 10 0 13 -6 9 -17 -5 -16 -4
-15 9 1 10 13 20 16 29 11 11 -7 11 -5 -1 10 -14 17 -14 18 6 7 12 -6 24 -8
28 -5 3 3 16 7 29 9 12 1 25 3 29 3 5 1 7 7 5 14 -1 6 6 11 16 11 9 -1 17 5
18 15 0 9 3 11 5 4 4 -9 15 -7 39 7 18 10 36 16 39 13 3 -4 6 1 6 10 0 11 5
14 17 10 12 -5 14 -3 8 7 -5 9 -4 11 4 6 6 -4 23 2 38 14 20 16 28 18 35 8 5
-9 8 -9 8 -1 0 6 14 18 30 27 20 9 28 10 24 3 -3 -7 1 -4 9 6 8 9 19 17 26 17
6 0 11 5 11 11 0 5 5 7 10 4 6 -3 10 -1 10 5 0 6 4 9 9 5 6 -3 14 2 19 11 5 9
13 16 18 16 19 1 34 11 28 19 -3 5 -2 8 3 7 16 -4 51 13 57 28 3 9 11 12 18 8
8 -5 9 -2 4 12 -6 15 -5 16 5 7 10 -10 20 -6 48 15 20 15 53 39 73 52 21 14
38 29 38 33 0 5 4 6 9 2 6 -3 13 0 18 7 4 7 19 19 34 26 14 7 39 27 57 43 18
17 32 28 32 25 0 -5 57 44 106 92 13 13 24 28 24 34 0 6 3 9 6 5 3 -3 26 17
50 44 24 27 44 47 44 44 0 -3 14 8 30 25 17 17 30 36 30 42 0 6 3 9 6 5 7 -7
54 46 54 61 0 6 4 12 8 14 13 5 152 185 152 197 0 6 5 11 10 11 6 0 10 7 10
15 0 8 4 15 8 15 5 0 15 12 23 27 8 16 26 45 41 66 15 21 37 60 49 85 12 26
35 65 49 87 32 47 73 125 65 125 -3 0 3 9 13 20 9 12 17 24 18 28 0 4 9 25 18
46 10 22 19 47 21 55 2 9 18 52 35 96 49 122 86 239 113 355 37 157 45 194 53
268 3 29 7 63 10 75 21 112 21 577 0 717 -8 50 -17 116 -22 155 -15 118 -94
353 -127 380 -7 6 -11 17 -9 26 1 9 -4 22 -13 29 -8 7 -15 18 -15 26 0 7 -10
23 -22 35 -13 12 -17 19 -10 14 11 -6 11 -3 0 16 -7 13 -22 34 -32 47 -15 17
-16 22 -5 22 11 1 10 3 -2 10 -9 5 -20 21 -23 35 -4 14 -11 25 -16 25 -6 0
-10 7 -10 16 0 8 -4 13 -9 10 -5 -3 -12 5 -15 19 -4 14 -13 25 -20 25 -8 0
-13 8 -12 18 2 9 -5 28 -15 41 -11 13 -19 29 -19 35 -1 15 -70 94 -70 79 0 -6
5 -13 12 -15 8 -3 9 -6 1 -11 -5 -3 -15 5 -22 19 -6 15 -7 23 -1 19 5 -3 10 1
10 9 0 8 -4 17 -9 20 -5 4 -37 48 -72 99 -92 137 -236 311 -337 407 -185 177
-312 288 -312 274 0 -5 -7 1 -15 13 -8 12 -32 32 -52 44 -21 13 -40 26 -43 29
-3 4 -51 40 -108 81 -163 116 -147 107 -139 86 4 -11 3 -16 -3 -12 -6 3 -10
12 -10 19 0 12 -116 81 -180 106 -19 8 -37 17 -40 21 -8 10 -87 49 -107 52
-10 2 -28 8 -40 15 -12 7 -28 12 -37 12 -8 0 -16 5 -18 10 -2 6 -13 12 -26 13
-12 0 -22 4 -22 7 0 3 -8 6 -18 7 -29 2 -47 8 -53 16 -3 4 -16 9 -27 10 -12 1
-22 4 -22 7 0 3 -14 7 -32 8 -18 2 -35 7 -38 13 -4 5 -14 7 -23 3 -9 -3 -17
-2 -17 3 0 5 -6 10 -12 11 -15 1 -53 9 -78 17 -10 3 -28 8 -39 10 -12 3 -29 7
-38 9 -17 4 -115 16 -175 21 -20 2 -28 -2 -29 -14 -1 -9 -4 -5 -9 9 -4 14 -9
18 -9 10 -1 -11 -3 -12 -9 -2 -11 17 -142 25 -161 9 -12 -9 -13 -9 -7 1 4 6 2
12 -3 12 -6 0 -11 -5 -11 -11 0 -5 -5 -7 -12 -3 -14 9 -108 12 -108 4z m-20
-1390 c0 10 3 10 15 0 12 -10 15 -10 15 0 0 7 7 5 18 -7 9 -10 14 -14 10 -9
-5 6 -8 13 -8 17 0 8 34 4 50 -6 6 -3 10 0 10 7 0 9 3 9 10 -2 9 -13 10 -13
10 0 0 12 2 12 9 1 5 -7 11 -9 14 -4 3 5 45 7 94 5 127 -5 133 -6 133 -17 0
-6 22 -9 50 -8 38 2 49 -1 43 -10 -4 -7 2 -5 12 3 17 14 18 13 12 -3 -4 -12
-3 -16 4 -11 6 4 15 0 20 -7 7 -12 9 -12 9 0 0 11 5 10 24 -2 17 -12 26 -13
35 -4 8 8 11 8 11 0 0 -6 7 -14 16 -17 9 -3 12 -2 9 4 -4 6 8 2 27 -8 18 -10
39 -17 46 -15 6 3 12 0 12 -6 0 -6 7 -8 15 -5 8 3 26 -4 41 -15 22 -17 30 -19
42 -9 13 10 14 10 8 1 -7 -12 12 -19 38 -14 5 1 6 -5 3 -12 -4 -11 0 -13 15
-9 11 3 24 -1 29 -9 7 -12 9 -12 9 1 0 13 1 13 10 0 9 -15 13 -16 51 -19 14
-1 19 -6 16 -15 -4 -10 0 -12 14 -9 11 3 19 0 19 -7 0 -7 8 -10 20 -7 11 3 18
0 17 -7 -1 -6 8 -11 20 -10 19 0 20 -2 11 -14 -10 -12 -9 -14 7 -10 13 2 24
-4 31 -17 5 -11 19 -20 32 -19 12 0 22 -5 22 -13 0 -7 10 -13 23 -13 18 0 19
-2 7 -10 -12 -8 -11 -10 8 -10 12 0 22 -5 22 -11 0 -5 -4 -8 -8 -5 -5 3 -9 -1
-9 -8 0 -11 4 -12 17 -4 13 8 23 7 41 -5 13 -10 19 -17 13 -17 -5 0 -15 5 -22
12 -6 6 -14 9 -17 7 -5 -6 16 -18 72 -40 26 -11 30 -16 20 -29 -6 -8 -7 -12
-3 -8 5 4 15 0 23 -10 9 -11 12 -11 7 -2 -4 8 3 5 15 -8 12 -12 27 -19 33 -16
7 4 8 2 4 -4 -4 -6 -12 -10 -19 -8 -7 1 -9 1 -4 -1 4 -3 4 -10 1 -16 -5 -8 -2
-8 7 1 7 6 17 12 21 12 5 0 8 -6 6 -12 -4 -20 33 -57 50 -50 12 4 14 1 9 -13
-7 -16 -5 -16 9 -4 16 13 16 12 5 -8 -10 -20 -9 -22 5 -16 13 5 15 3 9 -7 -6
-10 -4 -12 8 -7 9 3 19 1 23 -5 4 -7 3 -8 -4 -4 -7 4 -12 2 -12 -5 0 -6 8 -9
20 -6 11 3 18 1 15 -3 -3 -5 0 -12 6 -15 5 -4 8 -13 5 -21 -3 -8 -2 -13 2 -12
14 3 42 -14 36 -23 -3 -5 0 -9 6 -9 6 0 9 -4 6 -9 -3 -4 6 -7 20 -5 22 2 23 0
12 -14 -10 -12 -10 -14 0 -8 7 4 12 2 12 -8 0 -8 7 -19 16 -24 9 -5 16 -13 16
-18 -1 -5 7 -8 16 -7 10 1 11 0 5 -3 -18 -8 -16 -24 3 -24 8 0 12 -4 9 -10 -3
-5 -1 -10 4 -10 6 0 10 -3 10 -7 -3 -21 3 -33 17 -33 8 0 12 -4 9 -10 -3 -5
-1 -10 4 -10 6 0 10 -3 10 -7 -3 -20 2 -34 11 -28 6 3 10 1 10 -5 0 -6 4 -8
10 -5 6 3 7 -1 4 -9 -4 -9 1 -18 10 -22 9 -3 16 -10 16 -16 0 -5 -6 -6 -12 -3
-7 4 -4 -1 7 -10 11 -8 20 -23 20 -33 0 -9 6 -16 14 -14 12 3 12 1 0 -14 -9
-12 -9 -15 -1 -10 8 5 12 0 12 -13 0 -12 4 -21 10 -21 5 0 7 -7 4 -15 -4 -9 0
-15 8 -15 7 0 14 -10 15 -22 1 -11 8 -25 15 -29 10 -7 10 -9 1 -9 -7 0 -13 -5
-13 -11 0 -5 5 -7 10 -4 6 3 10 -1 10 -10 0 -10 5 -14 13 -9 9 5 9 4 0 -6 -10
-11 -8 -17 9 -32 14 -12 17 -18 7 -18 -9 0 -10 -3 -3 -8 17 -11 30 -47 33 -85
0 -10 5 -16 9 -13 5 3 9 -1 9 -9 0 -8 -4 -12 -9 -9 -12 8 14 -39 27 -48 6 -5
5 -8 -3 -8 -10 0 -9 -4 2 -16 9 -8 14 -20 11 -25 -4 -5 -1 -9 6 -9 8 0 8 -4
-1 -15 -10 -12 -10 -15 3 -15 10 0 14 -6 11 -15 -4 -8 -1 -15 5 -15 6 0 11 -5
11 -11 0 -5 -4 -8 -9 -5 -5 4 -4 -5 2 -19 7 -14 15 -25 19 -25 4 0 5 -9 3 -20
-2 -11 3 -27 11 -35 12 -12 12 -15 2 -16 -10 0 -10 -2 0 -6 7 -2 12 -22 12
-44 0 -30 3 -38 13 -33 8 5 8 2 -2 -9 -7 -9 -9 -17 -4 -17 5 0 10 -14 11 -32
2 -17 8 -38 15 -47 9 -12 9 -13 0 -7 -7 4 -13 2 -13 -3 0 -6 4 -11 9 -11 14 0
18 -116 4 -128 -14 -13 -27 13 -16 31 4 7 -1 6 -10 -2 -10 -8 -20 -11 -24 -7
-3 3 -1 6 5 6 7 0 12 5 12 10 0 6 -7 10 -16 10 -8 0 -12 5 -9 10 3 6 1 10 -4
10 -6 0 -11 5 -11 11 0 5 5 7 11 3 7 -4 10 -2 8 5 -3 7 -7 11 -11 9 -13 -7
-49 37 -44 55 3 14 1 16 -9 7 -9 -8 -14 -6 -19 5 -4 11 -2 14 7 9 9 -5 8 -3
-1 7 -11 12 -14 12 -22 -1 -7 -10 -10 -11 -11 -2 -1 6 -2 17 -3 22 0 6 -3 9
-6 8 -11 -5 -60 47 -56 58 3 7 -3 10 -15 7 -11 -3 -19 0 -19 8 0 7 -3 9 -7 6
-3 -4 -13 -1 -21 6 -13 10 -14 9 -7 -3 7 -12 6 -13 -6 -3 -18 15 -67 19 -91 8
-11 -4 -18 -3 -18 4 0 8 -5 9 -17 2 -11 -6 -24 -6 -35 0 -12 7 -18 6 -18 -2 0
-6 -7 -9 -15 -5 -9 3 -15 0 -15 -10 0 -8 -4 -12 -10 -9 -5 3 -10 2 -10 -4 0
-6 -7 -8 -15 -4 -9 3 -15 2 -14 -3 4 -21 -2 -25 -18 -13 -9 8 -14 9 -10 3 4
-7 -1 -18 -10 -25 -11 -10 -14 -10 -9 -2 5 9 2 11 -9 7 -12 -5 -13 -9 -4 -20
10 -12 8 -13 -6 -8 -14 6 -16 4 -10 -6 6 -10 4 -12 -9 -7 -11 5 -15 3 -10 -5
5 -8 2 -9 -11 -4 -15 5 -16 4 -5 -9 10 -12 10 -15 -4 -15 -11 0 -14 -5 -10
-12 5 -8 2 -9 -11 -4 -16 6 -16 4 -4 -11 9 -11 10 -14 2 -9 -8 4 -13 1 -13 -9
0 -10 -5 -13 -12 -9 -8 5 -9 2 -5 -10 4 -9 3 -15 -1 -13 -4 2 -16 -5 -26 -16
-19 -20 -19 -20 0 -14 19 7 19 7 0 -8 -15 -11 -16 -15 -5 -15 8 -1 -2 -10 -21
-21 -19 -11 -27 -18 -18 -15 10 3 20 1 23 -5 4 -5 1 -8 -7 -7 -7 2 -12 -3 -10
-10 1 -8 -2 -11 -7 -8 -10 7 -24 -22 -16 -34 3 -4 -3 -14 -13 -21 -15 -13 -16
-12 -3 4 7 9 9 17 3 17 -16 0 -22 -26 -9 -40 9 -10 9 -11 0 -6 -7 4 -13 2 -13
-4 0 -6 -4 -9 -8 -6 -5 3 -9 -1 -9 -9 0 -8 5 -11 11 -8 6 4 3 -3 -7 -14 -9
-11 -14 -23 -10 -28 5 -4 2 -5 -4 -1 -8 4 -14 2 -15 -6 0 -7 -2 -18 -2 -24 -1
-6 -9 -19 -19 -28 -19 -20 -23 -31 -6 -21 6 4 0 -9 -12 -28 -13 -19 -28 -33
-34 -29 -5 3 -4 -2 4 -11 12 -15 10 -19 -9 -20 -9 0 -40 -37 -32 -37 4 0 13 5
18 10 7 7 11 6 11 -4 0 -8 -5 -14 -11 -13 -5 1 -10 -3 -11 -10 0 -6 -4 -15 -9
-20 -6 -5 -6 -2 -1 7 8 13 7 13 -8 1 -20 -16 -23 -35 -4 -26 6 4 2 -2 -11 -12
-18 -15 -20 -21 -10 -31 9 -9 8 -12 -6 -12 -13 0 -17 -5 -13 -20 3 -11 1 -17
-4 -14 -5 3 -12 -2 -15 -10 -3 -9 -11 -16 -17 -16 -5 0 -3 8 6 18 10 10 17 22
17 26 0 5 -9 -2 -19 -15 -15 -19 -17 -27 -8 -38 10 -12 9 -12 -9 -3 -16 9 -21
8 -21 -3 0 -8 5 -11 11 -8 6 4 5 -1 -3 -10 -7 -9 -17 -15 -21 -12 -5 3 -12 0
-16 -6 -4 -7 -3 -9 4 -5 6 3 13 2 17 -4 3 -5 -1 -10 -10 -10 -11 0 -15 -5 -11
-16 3 -8 2 -13 -3 -9 -12 7 -41 -5 -41 -17 0 -6 8 -4 18 3 14 11 14 10 -2 -9
-15 -17 -22 -19 -33 -11 -11 10 -12 8 -7 -6 5 -13 4 -16 -4 -11 -8 5 -10 1 -5
-10 5 -14 2 -16 -15 -12 -18 5 -20 3 -12 -11 6 -13 5 -18 -6 -19 -7 -1 -21 -3
-29 -4 -8 -1 -12 -5 -9 -9 2 -5 12 -6 22 -3 14 5 14 4 2 -4 -8 -6 -18 -8 -22
-6 -4 3 -8 0 -8 -6 0 -6 -4 -8 -10 -5 -5 3 -10 -1 -10 -9 0 -9 -7 -16 -15 -16
-8 0 -15 -4 -15 -10 0 -5 8 -7 18 -3 10 3 6 -2 -8 -13 -14 -10 -28 -18 -32
-16 -5 1 -8 -3 -8 -10 0 -6 -3 -8 -7 -4 -4 3 -13 -4 -21 -16 -7 -13 -11 -15
-8 -6 3 12 1 15 -9 11 -8 -3 -12 -9 -9 -14 3 -5 -2 -9 -10 -9 -8 0 -20 -8 -25
-18 -8 -12 -10 -13 -11 -3 0 11 -4 9 -15 -5 -8 -10 -15 -15 -15 -10 0 6 -7 1
-16 -10 -8 -10 -13 -12 -9 -4 4 8 -1 6 -9 -4 -10 -13 -16 -15 -16 -6 0 8 -7 5
-19 -8 -20 -24 -36 -29 -26 -9 4 6 -1 3 -9 -7 -9 -11 -16 -16 -16 -11 0 5 -7
0 -16 -11 -8 -10 -13 -13 -9 -7 4 9 1 11 -9 7 -9 -3 -13 -11 -9 -18 4 -6 -2
-4 -12 4 -11 9 -16 10 -11 3 4 -8 2 -13 -4 -13 -6 0 -8 -4 -5 -10 3 -5 2 -10
-4 -10 -5 0 -13 5 -16 11 -5 7 -13 5 -25 -6 -10 -9 -24 -13 -35 -9 -12 5 -16
4 -12 -3 4 -7 0 -10 -10 -9 -10 2 -21 -2 -25 -8 -5 -7 -8 -5 -8 6 0 9 -4 19
-9 22 -5 3 -8 -2 -7 -12 1 -12 -6 -17 -26 -16 -16 0 -28 -3 -28 -6 0 -4 -6 -7
-12 -8 -68 -7 -86 -7 -105 -1 -13 5 -23 5 -23 0 0 -5 -8 -8 -17 -7 -10 2 -30
0 -45 -5 -16 -4 -28 -5 -28 -1 0 4 -13 7 -30 7 -16 0 -30 -4 -30 -8 0 -5 -4
-6 -8 -3 -11 6 -62 17 -82 18 -29 0 -185 40 -199 51 -7 6 -18 12 -25 14 -6 1
-20 4 -31 6 -11 3 -19 10 -17 16 2 9 -3 9 -17 1 -16 -8 -23 -6 -35 12 -8 12
-13 25 -11 29 3 4 -2 10 -10 13 -13 4 -13 2 -5 -14 13 -25 13 -40 -1 -17 -6 9
-14 15 -20 12 -5 -4 -9 -1 -9 6 0 7 -3 9 -7 5 -4 -3 -13 4 -21 16 -11 19 -12
20 -8 3 6 -19 5 -19 -7 -3 -8 10 -17 15 -20 11 -4 -3 -15 1 -25 10 -10 10 -21
14 -24 11 -3 -3 -9 0 -14 7 -4 8 -3 10 4 5 7 -4 12 -2 12 3 0 6 -7 11 -15 11
-8 0 -19 9 -25 20 -6 11 -15 18 -21 15 -13 -9 -48 36 -41 53 4 11 -1 13 -19 7
l-24 -8 20 19 c12 11 16 16 9 11 -6 -4 -17 -1 -24 8 -7 8 -17 15 -22 15 -15 0
-38 27 -30 35 4 5 -1 5 -10 2 -12 -4 -16 -1 -13 13 2 12 -1 17 -9 14 -19 -7
-40 23 -31 43 13 28 14 44 4 37 -5 -3 -7 -9 -4 -14 3 -4 -2 -14 -11 -21 -8 -7
-14 -8 -13 -3 3 20 -1 35 -10 30 -5 -3 -12 1 -15 10 -3 8 -2 13 2 10 5 -3 9 1
9 8 0 7 -10 13 -21 12 -14 -1 -21 5 -20 17 2 15 -1 16 -14 5 -13 -11 -14 -11
-8 0 4 7 2 20 -6 30 -12 16 -11 16 7 3 11 -8 5 -1 -12 17 -32 30 -44 50 -23
37 15 -9 12 4 -4 20 -7 8 -16 12 -19 9 -2 -3 -7 2 -11 11 -4 11 -2 14 7 10 6
-4 4 0 -5 8 -10 8 -18 24 -18 36 0 19 -10 26 -32 22 -5 0 -8 9 -8 21 0 21 0
21 23 2 l22 -19 -18 22 c-12 13 -25 19 -35 15 -15 -5 -16 -4 -2 13 14 17 13
18 -3 12 -11 -4 -16 -3 -12 3 3 6 1 10 -4 10 -6 0 -11 7 -11 16 0 8 -4 13 -9
10 -5 -3 -8 7 -7 23 2 26 -1 29 -23 25 -15 -1 -20 -1 -13 2 6 3 12 10 12 15 0
6 -5 7 -10 4 -5 -3 -10 1 -10 10 0 10 5 13 12 9 7 -4 8 -3 4 4 -4 6 -14 8 -22
5 -14 -5 -15 -3 -4 18 12 21 12 23 -2 11 -13 -10 -17 -10 -22 3 -3 9 -2 14 2
11 5 -3 9 1 9 8 0 7 -7 13 -16 12 -9 0 -16 5 -17 12 -1 6 -2 17 -3 23 0 5 -6
7 -13 3 -8 -5 -9 -2 -4 11 6 16 4 16 -11 4 -13 -11 -15 -11 -9 -1 5 8 1 22
-11 35 -18 21 -18 21 2 7 18 -13 18 -13 -1 10 -12 14 -19 31 -16 39 3 8 0 11
-7 7 -6 -4 -11 -1 -11 8 0 9 -4 16 -9 16 -8 0 -24 37 -22 51 0 4 -7 6 -17 5
-10 0 -16 6 -16 16 1 11 -4 14 -14 11 -11 -5 -13 -3 -7 6 5 10 2 11 -14 6 -15
-4 -21 -3 -19 6 3 13 -89 52 -103 43 -4 -2 -10 0 -14 6 -4 6 -11 7 -17 4 -6
-4 -26 -8 -44 -9 -18 0 -37 -5 -41 -10 -5 -4 -2 -5 6 0 9 5 12 4 8 -3 -4 -5
-17 -8 -29 -4 -16 4 -19 2 -13 -9 8 -12 6 -12 -8 0 -14 11 -18 11 -23 -3 -3
-9 -10 -13 -15 -10 -9 5 -13 -9 -10 -31 1 -5 -6 -1 -15 10 -13 16 -16 17 -11
3 4 -12 -1 -21 -13 -28 -11 -6 -20 -20 -20 -31 0 -13 -4 -18 -12 -13 -8 5 -9
2 -5 -10 4 -9 3 -15 -1 -13 -4 2 -16 -5 -26 -16 -15 -16 -16 -19 -3 -14 11 4
14 2 10 -9 -3 -7 -9 -14 -14 -14 -5 0 -9 -9 -9 -19 0 -11 -6 -22 -12 -24 -10
-4 -9 -8 2 -16 13 -9 12 -11 -2 -16 -9 -4 -15 -14 -13 -23 1 -9 -2 -22 -7 -29
-6 -7 -8 -35 -6 -63 1 -27 1 -50 -2 -51 -3 0 -13 -2 -23 -4 -9 -2 -15 1 -11 6
3 5 0 9 -7 9 -9 0 -9 3 0 14 9 11 8 17 -4 29 -13 13 -15 52 -15 242 0 178 3
225 13 219 8 -5 8 -3 -2 9 -11 14 -11 18 1 22 10 4 14 19 13 45 -1 21 2 37 7
34 7 -5 13 19 9 40 -1 4 4 14 10 22 9 11 8 14 -2 15 -10 0 -11 2 -1 6 6 2 12
11 12 19 0 15 11 18 26 7 5 -5 1 0 -9 10 -11 9 -15 17 -9 17 5 0 13 16 16 35
4 20 11 33 17 30 5 -4 6 -11 3 -17 -5 -7 -2 -8 5 -4 9 6 8 12 -4 25 -14 16
-13 20 7 46 13 16 17 26 11 22 -6 -4 -14 -3 -17 2 -4 5 3 12 14 16 11 4 18 11
14 16 -3 5 -2 18 1 30 5 14 10 17 19 10 9 -7 11 -1 11 24 -1 27 1 32 11 24 8
-7 14 -6 20 2 4 7 3 9 -4 5 -7 -4 -10 1 -9 14 1 19 10 25 31 21 5 -1 3 5 -4
14 -12 14 -11 18 1 26 8 5 19 9 24 9 7 0 7 3 0 8 -18 13 -15 31 5 37 22 7 27
25 8 26 -7 0 -2 5 11 10 20 8 22 11 10 26 -12 14 -12 16 0 8 11 -6 13 -4 7 10
-5 14 -4 15 7 7 10 -8 13 -6 14 9 2 27 22 50 37 42 6 -4 4 2 -4 12 -9 11 -10
16 -2 11 7 -4 12 -2 12 8 0 8 5 18 12 22 6 4 8 3 5 -3 -3 -5 0 -10 7 -10 8 0
12 7 8 15 -3 10 -1 13 6 8 8 -5 10 -2 6 8 -3 9 -1 16 5 16 6 0 11 7 11 16 0 8
5 12 10 9 6 -3 10 4 10 15 0 16 5 20 15 16 15 -5 18 1 18 35 0 9 7 16 15 15 8
0 17 5 20 13 3 9 0 11 -8 6 -9 -5 -11 -4 -6 3 4 7 14 12 21 12 17 0 37 34 27
45 -4 3 -2 6 3 5 29 -6 44 1 38 17 -4 11 -3 14 5 9 7 -4 12 -1 12 9 0 11 5 15
16 11 10 -4 13 -2 8 6 -5 8 -2 9 11 4 14 -5 16 -4 6 7 -9 12 -5 17 18 27 16 6
32 18 35 27 3 8 11 11 17 7 7 -4 6 2 -2 17 -11 22 -11 23 5 10 14 -12 16 -12
9 4 -5 15 -3 17 11 12 11 -5 15 -3 10 5 -5 8 -2 9 11 4 16 -6 16 -4 4 11 -12
15 -12 16 4 10 9 -3 17 -2 17 4 0 6 5 7 11 3 7 -4 6 2 -2 17 -11 22 -11 23 5
10 14 -12 16 -12 9 4 -5 15 -3 17 11 12 11 -4 15 -3 11 4 -4 6 1 9 11 7 11 -2
18 2 17 8 -1 7 8 20 20 30 21 19 21 19 7 -1 -8 -13 -4 -11 12 5 17 17 21 28
14 33 -6 4 0 6 14 5 15 -2 24 2 23 9 -2 7 4 10 12 7 10 -4 15 0 15 11 0 15 2
16 17 4 9 -8 14 -9 10 -3 -3 6 5 16 18 22 14 7 25 16 25 22 0 5 6 9 13 7 6 -1
11 4 9 11 -2 10 2 10 18 2 16 -8 20 -8 18 2 -2 7 3 12 10 11 6 -2 12 2 12 8 0
5 5 7 10 4 6 -3 10 1 10 11 0 13 3 14 14 5 10 -8 16 -8 25 2 6 8 7 18 3 23 -4
4 2 2 12 -6 11 -8 17 -10 13 -4 -8 13 19 27 34 18 5 -3 9 0 9 6 0 6 5 8 10 5
6 -3 10 1 10 11 0 13 3 14 15 4 12 -10 16 -9 21 4 3 9 17 16 29 16 13 0 27 5
30 10 4 6 11 8 16 5 5 -4 9 -2 9 3 0 6 8 9 18 8 9 0 16 5 14 12 -2 10 2 10 19
1 15 -8 19 -8 15 0 -6 10 6 15 27 12 4 0 7 4 7 10 0 5 5 7 10 4 6 -4 22 1 37
10 14 9 22 12 19 6 -4 -6 -2 -11 3 -11 6 0 11 5 11 11 0 5 4 8 9 5 5 -3 11 0
14 8 4 9 15 12 33 8 17 -3 25 -1 21 5 -9 14 26 11 35 -2 5 -6 8 -5 8 3 0 7 5
10 10 7 6 -3 10 -2 10 4 0 6 7 7 17 4 12 -5 14 -3 8 7 -6 10 -4 11 6 4 19 -12
42 -11 55 2 7 6 36 11 65 13 29 1 56 4 61 7 4 3 8 -1 8 -8 0 -8 4 -7 11 4 6
11 16 15 26 11 12 -5 14 -3 8 8 -8 12 -6 12 8 0 13 -10 17 -10 17 -1z m780
-110 c0 -5 -2 -10 -4 -10 -3 0 -8 5 -11 10 -3 6 -1 10 4 10 6 0 11 -4 11 -10z
m1952 -311 c2 -2 1 -3 -1 -2 -2 2 -10 -5 -18 -15 -12 -16 -13 -16 -7 1 5 13 2
16 -12 11 -15 -4 -16 -4 -5 4 13 10 38 10 43 1z m-1262 -124 c19 -22 8 -25
-12 -3 -10 10 -14 18 -9 18 5 0 14 -7 21 -15z m-2235 -2305 c3 -5 1 -10 -4
-10 -6 0 -11 5 -11 10 0 6 2 10 4 10 3 0 8 -4 11 -10z m-255 -1329 c0 -13 -29
-8 -34 5 -3 7 2 10 15 7 10 -3 19 -9 19 -12z m208 -56 c2 -2 -7 -2 -21 -1 -13
0 -24 6 -24 13 0 9 6 9 21 1 12 -6 22 -12 24 -13z m37 -13 c-3 -3 -11 0 -18 7
-9 10 -8 11 6 5 10 -3 15 -9 12 -12z"/>
<path d="M3187 4469 c7 -7 15 -10 18 -7 3 3 -2 9 -12 12 -14 6 -15 5 -6 -5z"/>
<path d="M3054 4450 c0 -13 4 -16 10 -10 7 7 7 13 0 20 -6 6 -10 3 -10 -10z"/>
<path d="M3097 4463 c-10 -9 -9 -23 1 -23 5 0 9 7 9 15 0 17 -1 18 -10 8z"/>
<path d="M2676 4443 c-6 -14 -5 -15 5 -6 7 7 10 15 7 18 -3 3 -9 -2 -12 -12z"/>
<path d="M2750 4430 c0 -5 5 -10 11 -10 5 0 7 5 4 10 -3 6 -8 10 -11 10 -2 0
-4 -4 -4 -10z"/>
<path d="M3255 4430 c-3 -5 -1 -10 4 -10 6 0 11 5 11 10 0 6 -2 10 -4 10 -3 0
-8 -4 -11 -10z"/>
<path d="M2815 4419 c-4 -6 -5 -12 -2 -15 2 -3 7 2 10 11 7 17 1 20 -8 4z"/>
<path d="M2933 4415 c0 -8 4 -15 9 -15 4 0 8 4 8 9 0 6 -4 12 -8 15 -5 3 -9
-1 -9 -9z"/>
<path d="M3137 4423 c-10 -9 -9 -23 1 -23 5 0 9 7 9 15 0 17 -1 18 -10 8z"/>
<path d="M2835 4411 c-3 -5 -2 -12 3 -15 5 -3 9 1 9 9 0 17 -3 19 -12 6z"/>
<path d="M2875 4413 c3 -3 0 -11 -5 -18 -7 -8 -5 -12 4 -12 14 0 16 22 3 32
-4 3 -5 2 -2 -2z"/>
<path d="M3064 4412 c4 -3 14 -7 22 -8 9 -1 13 0 10 4 -4 3 -14 7 -22 8 -9 1
-13 0 -10 -4z"/>
<path d="M3299 4398 c-5 -18 -6 -38 -1 -34 7 8 12 36 6 36 -2 0 -4 -1 -5 -2z"/>
<path d="M2816 4368 c3 -5 10 -6 15 -3 13 9 11 12 -6 12 -8 0 -12 -4 -9 -9z"/>
<path d="M2980 4370 c-9 -6 -10 -10 -3 -10 6 0 15 5 18 10 8 12 4 12 -15 0z"/>
<path d="M3010 4371 c0 -6 4 -13 10 -16 6 -3 7 1 4 9 -7 18 -14 21 -14 7z"/>
<path d="M3113 4373 c4 -3 1 -13 -6 -22 -11 -14 -10 -14 6 -2 20 15 22 31 5
31 -6 0 -8 -3 -5 -7z"/>
<path d="M2750 4350 c0 -5 5 -10 11 -10 5 0 7 5 4 10 -3 6 -8 10 -11 10 -2 0
-4 -4 -4 -10z"/>
<path d="M2933 4325 c0 -8 4 -12 9 -9 4 3 8 9 8 15 0 5 -4 9 -8 9 -5 0 -9 -7
-9 -15z"/>
<path d="M2974 4332 c4 -3 14 -7 22 -8 9 -1 13 0 10 4 -4 3 -14 7 -22 8 -9 1
-13 0 -10 -4z"/>
<path d="M3126 4328 c3 -5 10 -6 15 -3 13 9 11 12 -6 12 -8 0 -12 -4 -9 -9z"/>
<path d="M3246 4328 c3 -5 10 -6 15 -3 13 9 11 12 -6 12 -8 0 -12 -4 -9 -9z"/>
<path d="M3194 4316 c1 -8 5 -18 8 -22 4 -3 5 1 4 10 -1 8 -5 18 -8 22 -4 3
-5 -1 -4 -10z"/>
<path d="M3233 4305 c0 -8 4 -12 9 -9 5 3 6 10 3 15 -9 13 -12 11 -12 -6z"/>
<path d="M2946 4288 c3 -5 10 -6 15 -3 13 9 11 12 -6 12 -8 0 -12 -4 -9 -9z"/>
<path d="M2910 4266 c0 -2 8 -10 18 -17 15 -13 16 -12 3 4 -13 16 -21 21 -21
13z"/>
<path d="M3415 4110 c-3 -5 -1 -10 4 -10 6 0 11 5 11 10 0 6 -2 10 -4 10 -3 0
-8 -4 -11 -10z"/>
<path d="M3690 4110 c0 -5 5 -10 11 -10 5 0 7 5 4 10 -3 6 -8 10 -11 10 -2 0
-4 -4 -4 -10z"/>
<path d="M3355 4100 c-4 -6 -10 -8 -14 -6 -4 3 -8 -1 -8 -9 0 -13 4 -12 19 2
18 16 22 23 14 23 -3 0 -8 -5 -11 -10z"/>
<path d="M3630 4106 c0 -2 8 -10 18 -17 15 -13 16 -12 3 4 -13 16 -21 21 -21
13z"/>
<path d="M3753 4097 c0 -8 6 -14 14 -14 9 0 10 4 2 14 -6 7 -12 13 -14 13 -1
0 -2 -6 -2 -13z"/>
<path d="M2676 4083 c-6 -14 -5 -15 5 -6 7 7 10 15 7 18 -3 3 -9 -2 -12 -12z"/>
<path d="M3206 4088 c3 -5 10 -6 15 -3 13 9 11 12 -6 12 -8 0 -12 -4 -9 -9z"/>
<path d="M3559 4083 c-13 -16 -12 -17 4 -4 9 7 17 15 17 17 0 8 -8 3 -21 -13z"/>
<path d="M3719 4083 c-13 -16 -12 -17 4 -4 9 7 17 15 17 17 0 8 -8 3 -21 -13z"/>
<path d="M3816 4083 c-6 -14 -5 -15 5 -6 7 7 10 15 7 18 -3 3 -9 -2 -12 -12z"/>
<path d="M3674 4076 c1 -8 5 -18 8 -22 4 -3 5 1 4 10 -1 8 -5 18 -8 22 -4 3
-5 -1 -4 -10z"/>
<path d="M2813 4066 c-3 -6 -3 -8 2 -4 4 4 13 3 20 -2 8 -7 12 -5 12 3 0 16
-25 18 -34 3z"/>
<path d="M2899 4078 c-5 -16 -4 -46 2 -42 4 2 7 13 6 24 -1 17 -5 26 -8 18z"/>
<path d="M2976 4052 c-3 -5 1 -9 9 -9 8 0 12 4 9 9 -3 4 -7 8 -9 8 -2 0 -6 -4
-9 -8z"/>
<path d="M3176 4052 c-3 -5 1 -9 9 -9 8 0 12 4 9 9 -3 4 -7 8 -9 8 -2 0 -6 -4
-9 -8z"/>
<path d="M3336 4052 c-3 -5 1 -9 9 -9 8 0 12 4 9 9 -3 4 -7 8 -9 8 -2 0 -6 -4
-9 -8z"/>
<path d="M3590 4056 c0 -2 7 -7 16 -10 8 -3 12 -2 9 4 -6 10 -25 14 -25 6z"/>
<path d="M3896 4052 c-3 -5 1 -9 9 -9 8 0 12 4 9 9 -3 4 -7 8 -9 8 -2 0 -6 -4
-9 -8z"/>
<path d="M2815 4041 c-3 -5 -2 -12 3 -15 5 -3 9 1 9 9 0 17 -3 19 -12 6z"/>
<path d="M3753 4035 c0 -8 4 -12 9 -9 5 3 6 10 3 15 -9 13 -12 11 -12 -6z"/>
<path d="M3706 4032 c-3 -5 1 -9 9 -9 8 0 15 4 15 9 0 4 -4 8 -9 8 -6 0 -12
-4 -15 -8z"/>
<path d="M3874 4023 c2 -10 -2 -25 -8 -33 -9 -13 -9 -13 6 -2 16 12 18 35 6
48 -4 3 -5 -2 -4 -13z"/>
<path d="M2995 4021 c-3 -5 -2 -12 3 -15 5 -3 9 1 9 9 0 17 -3 19 -12 6z"/>
<path d="M3937 4023 c-10 -9 -9 -23 1 -23 5 0 9 7 9 15 0 17 -1 18 -10 8z"/>
<path d="M2755 4010 c-3 -5 -1 -10 4 -10 6 0 11 5 11 10 0 6 -2 10 -4 10 -3 0
-8 -4 -11 -10z"/>
<path d="M3390 4010 c0 -5 5 -10 11 -10 5 0 7 5 4 10 -3 6 -8 10 -11 10 -2 0
-4 -4 -4 -10z"/>
<path d="M3476 4008 c3 -5 10 -6 15 -3 13 9 11 12 -6 12 -8 0 -12 -4 -9 -9z"/>
<path d="M3776 4009 c4 -7 62 -4 70 3 2 3 -13 5 -35 4 -22 0 -37 -4 -35 -7z"/>
<path d="M2834 3992 c4 -3 14 -7 22 -8 9 -1 13 0 10 4 -4 3 -14 7 -22 8 -9 1
-13 0 -10 -4z"/>
<path d="M3030 3990 c0 -5 5 -10 11 -10 5 0 7 5 4 10 -3 6 -8 10 -11 10 -2 0
-4 -4 -4 -10z"/>
<path d="M3067 3989 c7 -7 15 -10 18 -7 3 3 -2 9 -12 12 -14 6 -15 5 -6 -5z"/>
<path d="M3320 3990 c-9 -6 -10 -10 -3 -10 6 0 15 5 18 10 8 12 4 12 -15 0z"/>
<path d="M3355 3991 c-3 -5 0 -13 7 -18 14 -9 60 -12 52 -3 -3 3 -16 5 -27 5
-12 0 -21 6 -19 13 2 14 -4 16 -13 3z"/>
<path d="M3670 3988 c0 -4 4 -8 9 -8 6 0 12 4 15 8 3 5 -1 9 -9 9 -8 0 -15 -4
-15 -9z"/>
<path d="M4050 3989 c0 -5 5 -7 10 -4 6 3 10 8 10 11 0 2 -4 4 -10 4 -5 0 -10
-5 -10 -11z"/>
<path d="M2996 3977 c3 -10 9 -15 12 -12 3 3 0 11 -7 18 -10 9 -11 8 -5 -6z"/>
<path d="M3713 3975 c0 -8 4 -12 9 -9 5 3 6 10 3 15 -9 13 -12 11 -12 -6z"/>
<path d="M3776 3977 c3 -10 9 -15 12 -12 3 3 0 11 -7 18 -10 9 -11 8 -5 -6z"/>
<path d="M3156 3972 c-3 -5 1 -9 9 -9 8 0 12 4 9 9 -3 4 -7 8 -9 8 -2 0 -6 -4
-9 -8z"/>
<path d="M3640 3976 c0 -2 8 -10 18 -17 15 -13 16 -12 3 4 -13 16 -21 21 -21
13z"/>
<path d="M3886 3968 c3 -5 10 -6 15 -3 13 9 11 12 -6 12 -8 0 -12 -4 -9 -9z"/>
<path d="M3490 3949 c0 -5 5 -7 10 -4 6 3 10 8 10 11 0 2 -4 4 -10 4 -5 0 -10
-5 -10 -11z"/>
<path d="M4016 3952 c-2 -4 -1 -14 4 -22 7 -11 9 -9 7 8 -1 24 -3 26 -11 14z"/>
<path d="M3055 3930 c-3 -5 -1 -10 4 -10 6 0 11 5 11 10 0 6 -2 10 -4 10 -3 0
-8 -4 -11 -10z"/>
<path d="M3120 3930 c-9 -6 -10 -10 -3 -10 6 0 15 5 18 10 8 12 4 12 -15 0z"/>
<path d="M3150 3935 c0 -5 5 -17 10 -25 5 -8 10 -10 10 -5 0 6 -5 17 -10 25
-5 8 -10 11 -10 5z"/>
<path d="M3225 3929 c-3 -4 2 -6 10 -5 21 3 28 13 10 13 -9 0 -18 -4 -20 -8z"/>
<path d="M3650 3910 c0 -5 5 -10 11 -10 5 0 7 5 4 10 -3 6 -8 10 -11 10 -2 0
-4 -4 -4 -10z"/>
<path d="M2066 3692 c-3 -5 1 -9 9 -9 8 0 12 4 9 9 -3 4 -7 8 -9 8 -2 0 -6 -4
-9 -8z"/>
<path d="M1050 3110 c0 -5 5 -10 11 -10 5 0 7 5 4 10 -3 6 -8 10 -11 10 -2 0
-4 -4 -4 -10z"/>
<path d="M1055 3081 c-3 -5 -2 -12 3 -15 5 -3 9 1 9 9 0 17 -3 19 -12 6z"/>
<path d="M4820 2666 c0 -3 9 -10 19 -16 15 -7 22 -7 27 2 4 7 4 10 -1 6 -4 -4
-16 -3 -26 3 -11 5 -19 7 -19 5z"/>
<path d="M4940 2554 c0 -20 27 -37 36 -23 4 7 3 9 -4 5 -6 -3 -15 2 -21 11 -6
10 -11 13 -11 7z"/>
<path d="M2013 2315 c0 -8 4 -12 9 -9 5 3 6 10 3 15 -9 13 -12 11 -12 -6z"/>
<path d="M1853 2275 c0 -8 4 -12 9 -9 5 3 6 10 3 15 -9 13 -12 11 -12 -6z"/>
<path d="M1935 2269 c-3 -4 2 -6 10 -5 21 3 28 13 10 13 -9 0 -18 -4 -20 -8z"/>
<path d="M2020 2256 c0 -2 8 -10 18 -17 15 -13 16 -12 3 4 -13 16 -21 21 -21
13z"/>
<path d="M2080 2245 c-7 -8 -9 -15 -5 -15 4 0 1 -8 -6 -17 -11 -16 -11 -16 1
-5 8 7 15 18 15 25 1 7 7 11 14 9 7 -1 10 2 6 8 -8 13 -10 13 -25 -5z"/>
<path d="M1986 2228 c3 -4 9 -8 15 -8 5 0 9 4 9 8 0 5 -7 9 -15 9 -8 0 -12 -4
-9 -9z"/>
<path d="M1915 2219 c-4 -6 -5 -12 -2 -15 2 -3 7 2 10 11 7 17 1 20 -8 4z"/>
<path d="M2030 2209 c0 -5 5 -7 10 -4 6 3 10 8 10 11 0 2 -4 4 -10 4 -5 0 -10
-5 -10 -11z"/>
<path d="M1953 2195 c0 -8 4 -12 9 -9 5 3 6 10 3 15 -9 13 -12 11 -12 -6z"/>
<path d="M1770 2189 c0 -5 5 -7 10 -4 6 3 10 8 10 11 0 2 -4 4 -10 4 -5 0 -10
-5 -10 -11z"/>
<path d="M1986 2192 c-3 -5 1 -9 9 -9 8 0 15 4 15 9 0 4 -4 8 -9 8 -6 0 -12
-4 -15 -8z"/>
<path d="M2056 2177 c3 -10 9 -15 12 -12 3 3 0 11 -7 18 -10 9 -11 8 -5 -6z"/>
<path d="M2676 2168 c3 -5 10 -6 15 -3 13 9 11 12 -6 12 -8 0 -12 -4 -9 -9z"/>
<path d="M2535 2161 c-3 -5 -2 -12 3 -15 5 -3 9 1 9 9 0 17 -3 19 -12 6z"/>
<path d="M2215 2150 c-3 -5 -1 -10 4 -10 6 0 11 5 11 10 0 6 -2 10 -4 10 -3 0
-8 -4 -11 -10z"/>
<path d="M2573 2139 c-2 -23 3 -25 10 -4 4 8 3 16 -1 19 -4 3 -9 -4 -9 -15z"/>
<path d="M2115 2139 c-4 -6 -5 -12 -2 -15 2 -3 7 2 10 11 7 17 1 20 -8 4z"/>
<path d="M1874 2124 c1 -8 4 -15 7 -16 2 -2 3 -1 2 1 -2 2 2 9 7 16 7 8 5 12
-4 12 -8 0 -13 -6 -12 -13z"/>
<path d="M1836 2112 c-3 -5 1 -9 9 -9 8 0 12 4 9 9 -3 4 -7 8 -9 8 -2 0 -6 -4
-9 -8z"/>
<path d="M2216 2108 c3 -4 11 -5 19 -1 21 7 19 12 -4 10 -11 0 -18 -5 -15 -9z"/>
<path d="M2390 2106 c0 -2 8 -10 18 -17 15 -13 16 -12 3 4 -13 16 -21 21 -21
13z"/>
<path d="M1916 2088 c3 -5 10 -6 15 -3 13 9 11 12 -6 12 -8 0 -12 -4 -9 -9z"/>
<path d="M1993 2085 c0 -8 4 -12 9 -9 5 3 6 10 3 15 -9 13 -12 11 -12 -6z"/>
<path d="M2107 2089 c7 -7 15 -10 18 -7 3 3 -2 9 -12 12 -14 6 -15 5 -6 -5z"/>
<path d="M2550 2070 c0 -5 5 -10 11 -10 5 0 7 5 4 10 -3 6 -8 10 -11 10 -2 0
-4 -4 -4 -10z"/>
<path d="M2213 2035 c0 -8 4 -12 9 -9 5 3 6 10 3 15 -9 13 -12 11 -12 -6z"/>
<path d="M1850 2029 c0 -5 5 -7 10 -4 6 3 10 8 10 11 0 2 -4 4 -10 4 -5 0 -10
-5 -10 -11z"/>
<path d="M2030 2036 c0 -2 7 -7 16 -10 8 -3 12 -2 9 4 -6 10 -25 14 -25 6z"/>
<path d="M2314 2016 c1 -8 5 -18 8 -22 4 -3 5 1 4 10 -1 8 -5 18 -8 22 -4 3
-5 -1 -4 -10z"/>
<path d="M1945 2010 c-3 -6 1 -7 9 -4 18 7 21 14 7 14 -6 0 -13 -4 -16 -10z"/>
<path d="M2026 2012 c-3 -5 1 -9 9 -9 8 0 12 4 9 9 -3 4 -7 8 -9 8 -2 0 -6 -4
-9 -8z"/>
<path d="M1896 1997 c3 -10 9 -15 12 -12 3 3 0 11 -7 18 -10 9 -11 8 -5 -6z"/>
<path d="M2775 1990 c-3 -5 -1 -10 4 -10 6 0 11 5 11 10 0 6 -2 10 -4 10 -3 0
-8 -4 -11 -10z"/>
<path d="M2017 1980 c7 -8 20 -15 29 -16 9 -1 13 1 9 4 -4 4 -10 7 -13 7 -4 0
-14 4 -22 9 -12 7 -13 6 -3 -4z"/>
<path d="M2525 1970 c-3 -6 1 -7 9 -4 18 7 21 14 7 14 -6 0 -13 -4 -16 -10z"/>
<path d="M2800 1970 c-9 -6 -10 -10 -3 -10 6 0 15 5 18 10 8 12 4 12 -15 0z"/>
<path d="M2270 1956 c0 -2 7 -7 16 -10 8 -3 12 -2 9 4 -6 10 -25 14 -25 6z"/>
<path d="M2610 1950 c0 -5 5 -10 11 -10 5 0 7 5 4 10 -3 6 -8 10 -11 10 -2 0
-4 -4 -4 -10z"/>
<path d="M2690 1949 c0 -5 5 -7 10 -4 6 3 10 8 10 11 0 2 -4 4 -10 4 -5 0 -10
-5 -10 -11z"/>
<path d="M1870 1930 c0 -5 5 -10 11 -10 5 0 7 5 4 10 -3 6 -8 10 -11 10 -2 0
-4 -4 -4 -10z"/>
<path d="M2356 1923 c-6 -14 -5 -15 5 -6 7 7 10 15 7 18 -3 3 -9 -2 -12 -12z"/>
<path d="M2414 1926 c1 -8 5 -18 8 -22 4 -3 5 1 4 10 -1 8 -5 18 -8 22 -4 3
-5 -1 -4 -10z"/>
<path d="M2500 1930 c-9 -6 -10 -10 -3 -10 6 0 15 5 18 10 8 12 4 12 -15 0z"/>
<path d="M2719 1923 c-13 -16 -12 -17 4 -4 16 13 21 21 13 21 -2 0 -10 -8 -17
-17z"/>
<path d="M2780 1935 c0 -2 6 -8 13 -14 10 -8 14 -7 14 2 0 8 -6 14 -14 14 -7
0 -13 -1 -13 -2z"/>
<path d="M1954 1890 c0 -13 4 -16 10 -10 7 7 7 13 0 20 -6 6 -10 3 -10 -10z"/>
<path d="M2855 1901 c-3 -5 -2 -12 3 -15 5 -3 9 1 9 9 0 17 -3 19 -12 6z"/>
<path d="M2656 1892 c-3 -5 1 -9 9 -9 8 0 12 4 9 9 -3 4 -7 8 -9 8 -2 0 -6 -4
-9 -8z"/>
<path d="M2896 1888 c3 -5 10 -6 15 -3 13 9 11 12 -6 12 -8 0 -12 -4 -9 -9z"/>
<path d="M2039 1878 c-6 -20 -6 -39 0 -42 4 -3 7 6 7 20 0 20 -4 32 -7 22z"/>
<path d="M2136 1868 c3 -5 10 -6 15 -3 13 9 11 12 -6 12 -8 0 -12 -4 -9 -9z"/>
<path d="M2495 1870 c-3 -5 -1 -10 4 -10 6 0 11 5 11 10 0 6 -2 10 -4 10 -3 0
-8 -4 -11 -10z"/>
<path d="M2353 1853 c4 -3 1 -13 -6 -22 -11 -14 -10 -14 5 -2 16 12 16 31 1
31 -4 0 -3 -3 0 -7z"/>
<path d="M2795 1840 c10 -11 20 -20 23 -20 3 0 -3 9 -13 20 -10 11 -20 20 -23
20 -3 0 3 -9 13 -20z"/>
<path d="M2935 1841 c-3 -5 -2 -12 3 -15 5 -3 9 1 9 9 0 17 -3 19 -12 6z"/>
<path d="M2126 1828 c3 -5 10 -6 15 -3 13 9 11 12 -6 12 -8 0 -12 -4 -9 -9z"/>
<path d="M2417 1823 c-10 -9 -9 -23 1 -23 5 0 9 7 9 15 0 17 -1 18 -10 8z"/>
<path d="M2596 1817 c3 -10 9 -15 12 -12 3 3 0 11 -7 18 -10 9 -11 8 -5 -6z"/>
<path d="M2033 1802 c0 -10 7 -19 14 -19 9 0 10 4 3 12 -5 7 -7 15 -3 18 3 4
1 7 -5 7 -6 0 -10 -8 -9 -18z"/>
<path d="M2486 1808 c3 -5 10 -6 15 -3 13 9 11 12 -6 12 -8 0 -12 -4 -9 -9z"/>
<path d="M2675 1809 c-3 -4 2 -6 10 -5 21 3 28 13 10 13 -9 0 -18 -4 -20 -8z"/>
<path d="M2879 1803 c-13 -16 -12 -17 4 -4 16 13 21 21 13 21 -2 0 -10 -8 -17
-17z"/>
<path d="M2313 1795 c0 -8 4 -12 9 -9 5 3 6 10 3 15 -9 13 -12 11 -12 -6z"/>
<path d="M2970 1789 c0 -5 5 -7 10 -4 6 3 10 8 10 11 0 2 -4 4 -10 4 -5 0 -10
-5 -10 -11z"/>
<path d="M2076 1772 c-3 -5 1 -9 9 -9 8 0 12 4 9 9 -3 4 -7 8 -9 8 -2 0 -6 -4
-9 -8z"/>
<path d="M2255 1771 c3 -3 17 -6 31 -7 13 0 22 2 19 5 -3 3 -17 6 -31 7 -13 0
-22 -2 -19 -5z"/>
<path d="M2373 1765 c0 -8 4 -12 9 -9 4 3 8 9 8 15 0 5 -4 9 -8 9 -5 0 -9 -7
-9 -15z"/>
<path d="M2004 1750 c2 -16 20 -14 24 2 3 10 2 10 -6 -1 -7 -9 -11 -10 -15 -2
-4 7 -5 8 -3 1z"/>
<path d="M2510 1748 c0 -4 4 -8 9 -8 6 0 12 4 15 8 3 5 -1 9 -9 9 -8 0 -15 -4
-15 -9z"/>
<path d="M2615 1750 c-3 -5 -1 -10 4 -10 6 0 11 5 11 10 0 6 -2 10 -4 10 -3 0
-8 -4 -11 -10z"/>
<path d="M2675 1750 c-3 -5 -1 -10 4 -10 6 0 11 5 11 10 0 6 -2 10 -4 10 -3 0
-8 -4 -11 -10z"/>
<path d="M2089 1733 c-13 -16 -12 -17 4 -4 16 13 21 21 13 21 -2 0 -10 -8 -17
-17z"/>
<path d="M2215 1739 c-4 -6 -5 -12 -2 -15 2 -3 7 2 10 11 7 17 1 20 -8 4z"/>
<path d="M2253 1735 c0 -8 4 -12 9 -9 5 3 6 10 3 15 -9 13 -12 11 -12 -6z"/>
<path d="M2553 1735 c0 -8 4 -12 9 -9 5 3 6 10 3 15 -9 13 -12 11 -12 -6z"/>
<path d="M2913 1735 c0 -8 4 -12 9 -9 5 3 6 10 3 15 -9 13 -12 11 -12 -6z"/>
<path d="M2170 1736 c0 -2 7 -7 16 -10 8 -3 12 -2 9 4 -6 10 -25 14 -25 6z"/>
<path d="M2416 1723 c-6 -14 -5 -15 5 -6 7 7 10 15 7 18 -3 3 -9 -2 -12 -12z"/>
<path d="M3085 1730 c-3 -6 1 -7 9 -4 18 7 21 14 7 14 -6 0 -13 -4 -16 -10z"/>
<path d="M2113 1715 c0 -8 4 -12 9 -9 5 3 6 10 3 15 -9 13 -12 11 -12 -6z"/>
<path d="M2146 1712 c-3 -5 1 -9 9 -9 8 0 15 4 15 9 0 4 -4 8 -9 8 -6 0 -12
-4 -15 -8z"/>
<path d="M3016 1708 c3 -5 10 -6 15 -3 13 9 11 12 -6 12 -8 0 -12 -4 -9 -9z"/>
<path d="M2074 1699 c-3 -6 -2 -15 3 -20 5 -5 9 -1 9 11 0 23 -2 24 -12 9z"/>
<path d="M2257 1703 c-10 -9 -9 -23 1 -23 5 0 9 7 9 15 0 17 -1 18 -10 8z"/>
<path d="M2375 1700 c-4 -6 -11 -7 -17 -4 -7 4 -8 2 -4 -5 6 -9 11 -9 22 0 14
11 18 19 10 19 -3 0 -8 -5 -11 -10z"/>
<path d="M2735 1700 c-4 -6 -12 -7 -18 -4 -7 4 -8 3 -4 -1 13 -15 34 -14 34 1
0 17 -4 18 -12 4z"/>
<path d="M2426 1688 c3 -5 10 -6 15 -3 13 9 11 12 -6 12 -8 0 -12 -4 -9 -9z"/>
<path d="M2796 1688 c3 -5 10 -6 15 -3 13 9 11 12 -6 12 -8 0 -12 -4 -9 -9z"/>
<path d="M2830 1691 c0 -6 4 -13 10 -16 6 -3 7 1 4 9 -7 18 -14 21 -14 7z"/>
<path d="M2475 1681 c-3 -5 -2 -12 3 -15 5 -3 9 1 9 9 0 17 -3 19 -12 6z"/>
<path d="M2315 1671 c-3 -5 -2 -12 3 -15 5 -3 9 1 9 9 0 17 -3 19 -12 6z"/>
<path d="M2570 1670 c0 -5 5 -10 11 -10 5 0 7 5 4 10 -3 6 -8 10 -11 10 -2 0
-4 -4 -4 -10z"/>
<path d="M2673 1663 c0 -9 4 -10 14 -2 7 6 13 12 13 14 0 1 -6 2 -13 2 -8 0
-14 -6 -14 -14z"/>
<path d="M2713 1655 c0 -8 4 -15 9 -15 4 0 8 4 8 9 0 6 -4 12 -8 15 -5 3 -9
-1 -9 -9z"/>
<path d="M2195 1651 c-3 -5 -2 -12 3 -15 5 -3 9 1 9 9 0 17 -3 19 -12 6z"/>
<path d="M2640 1656 c0 -2 8 -10 18 -17 15 -13 16 -12 3 4 -13 16 -21 21 -21
13z"/>
<path d="M2473 1635 c0 -8 4 -12 9 -9 5 3 6 10 3 15 -9 13 -12 11 -12 -6z"/>
<path d="M2554 1632 c4 -3 14 -7 22 -8 9 -1 13 0 10 4 -4 3 -14 7 -22 8 -9 1
-13 0 -10 -4z"/>
<path d="M2850 1629 c0 -5 5 -7 10 -4 6 3 10 8 10 11 0 2 -4 4 -10 4 -5 0 -10
-5 -10 -11z"/>
<path d="M2193 1605 c0 -8 4 -12 9 -9 5 3 6 10 3 15 -9 13 -12 11 -12 -6z"/>
<path d="M2640 1610 c-9 -6 -10 -10 -3 -10 6 0 15 5 18 10 8 12 4 12 -15 0z"/>
<path d="M2730 1611 c0 -6 4 -12 8 -15 5 -3 9 1 9 9 0 8 -4 15 -9 15 -4 0 -8
-4 -8 -9z"/>
<path d="M2996 1612 c-3 -5 1 -9 9 -9 8 0 12 4 9 9 -3 4 -7 8 -9 8 -2 0 -6 -4
-9 -8z"/>
<path d="M2163 1583 c17 -17 60 -26 51 -11 -4 5 -12 7 -20 4 -8 -3 -17 1 -20
9 -4 8 -11 15 -17 15 -6 0 -4 -8 6 -17z"/>
<path d="M2230 1591 c0 -6 4 -12 8 -15 5 -3 9 1 9 9 0 8 -4 15 -9 15 -4 0 -8
-4 -8 -9z"/>
<path d="M2850 1590 c0 -5 5 -10 11 -10 5 0 7 5 4 10 -3 6 -8 10 -11 10 -2 0
-4 -4 -4 -10z"/>
<path d="M2275 1573 c3 -3 0 -11 -5 -18 -7 -8 -5 -12 4 -12 14 0 16 22 3 32
-4 3 -5 2 -2 -2z"/>
<path d="M2720 1570 c-9 -6 -10 -10 -3 -10 6 0 15 5 18 10 8 12 4 12 -15 0z"/>
<path d="M3660 1559 c0 -5 5 -7 10 -4 6 3 10 8 10 11 0 2 -4 4 -10 4 -5 0 -10
-5 -10 -11z"/>
<path d="M2966 1548 c3 -5 10 -6 15 -3 13 9 11 12 -6 12 -8 0 -12 -4 -9 -9z"/>
<path d="M2270 1502 c9 -19 14 -21 26 -11 8 6 14 14 14 17 0 3 -5 1 -12 -6 -9
-9 -15 -7 -25 6 -13 15 -13 14 -3 -6z"/>
<path d="M2374 1490 c0 -13 4 -16 10 -10 7 7 7 13 0 20 -6 6 -10 3 -10 -10z"/>
<path d="M3069 1493 c-13 -16 -12 -17 4 -4 16 13 21 21 13 21 -2 0 -10 -8 -17
-17z"/>
<path d="M2485 1470 c-3 -6 1 -7 9 -4 18 7 21 14 7 14 -6 0 -13 -4 -16 -10z"/>
<path d="M3016 1451 c9 -9 34 -9 34 -1 0 5 -9 8 -20 7 -10 -1 -17 -3 -14 -6z"/>
<path d="M2455 1439 c-4 -6 -5 -12 -2 -15 2 -3 7 2 10 11 7 17 1 20 -8 4z"/>
<path d="M3086 1428 c3 -5 10 -6 15 -3 13 9 11 12 -6 12 -8 0 -12 -4 -9 -9z"/>
<path d="M3041 1406 c-8 -10 -9 -16 -1 -21 6 -4 9 -1 8 7 -2 8 6 12 22 10 19
-2 22 0 10 8 -20 13 -25 12 -39 -4z"/>
<path d="M3110 1389 c0 -5 5 -7 10 -4 6 3 10 8 10 11 0 2 -4 4 -10 4 -5 0 -10
-5 -10 -11z"/>
<path d="M3073 1375 c0 -8 4 -12 9 -9 5 3 6 10 3 15 -9 13 -12 11 -12 -6z"/>
<path d="M3140 1356 c0 -2 8 -10 18 -17 15 -13 16 -12 3 4 -13 16 -21 21 -21
13z"/>
<path d="M3075 1341 c-3 -5 -2 -12 3 -15 5 -3 9 1 9 9 0 17 -3 19 -12 6z"/>
<path d="M3035 1330 c-3 -5 -1 -10 4 -10 6 0 11 5 11 10 0 6 -2 10 -4 10 -3 0
-8 -4 -11 -10z"/>
</g>
</svg>
